<svg xmlns="http://www.w3.org/2000/svg" viewBox="0 0 96 96"><defs><style>.a{fill:#787878;fill-rule:evenodd;}.b{fill:#2196f3;}.c{fill:#fff;}.d{fill:none;stroke:#707070;stroke-width:1.396px;}</style></defs><path class="a" d="M16.326,23.5h4.847A12.4,12.4,0,0,1,33.4,13.1H79.674A12.375,12.375,0,0,1,92,25.421V60.174A12.375,12.375,0,0,1,79.674,72.5H74.821A12.394,12.394,0,0,1,62.6,82.905H16.326A12.375,12.375,0,0,1,4,70.579V35.826A12.375,12.375,0,0,1,16.326,23.5Zm58.09,8.582a15.172,15.172,0,0,1,.506,3.738V68.762h4.747a8.581,8.581,0,0,0,8.588-8.572V32.083ZM71.184,42.489H7.738v28.09a8.579,8.579,0,0,0,8.571,8.588H62.6A8.579,8.579,0,0,0,71.184,70.6V42.489Z"/><path class="b" d="M16.362,27.057H63.833a6.981,6.981,0,0,1,6.981,6.981v6.981H7.985V35.434A8.377,8.377,0,0,1,16.362,27.057Z"/><circle class="c" cx="63.833" cy="34.038" r="4.189"/><circle class="d" cx="63.833" cy="34.038" r="3.491"/><circle class="c" cx="54.06" cy="34.038" r="4.189"/><circle class="d" cx="54.06" cy="34.038" r="3.491"/><circle class="c" cx="44.286" cy="34.038" r="4.189"/><circle class="d" cx="44.286" cy="34.038" r="3.491"/></svg>