<?xml version="1.0" encoding="utf-8"?>
<!-- Generator: Adobe Illustrator 23.0.1, SVG Export Plug-In . SVG Version: 6.00 Build 0)  -->
<svg version="1.1" id="Capa_1" xmlns="http://www.w3.org/2000/svg" xmlns:xlink="http://www.w3.org/1999/xlink" x="0px" y="0px"
	 viewBox="0 0 520.7 414.9" style="enable-background:new 0 0 520.7 414.9;" xml:space="preserve">
<style type="text/css">
	.st0{fill:#C6DEFB;}
	.st1{fill:#FFFFFF;}
	.st2{fill:#FEFEFE;}
</style>
<path class="st0" d="M302.2,78.8c0,0.1,0,0.3,0,0.4c-2.4,0-4.8,0-7.2,0c0-0.1,0-0.3,0-0.4C297.4,78.8,299.8,78.8,302.2,78.8z"/>
<path class="st1" d="M256.8,79.2c2.4,0,4.8,0,7.2,0c18.3,0.6,35.6,4.9,52,13.2c20,10.2,36.2,24.7,48.3,43.7
	c9.7,15.3,16,31.9,18.3,50c0.1,1.1,0.1,1.6-1.1,2.1c-7.7,3.3-15,7.3-21.6,12.6c-5.2,4.1-10.2,8.5-14.4,13.6
	c-8.7,10.8-15.8,22.5-19.3,36.1c0,0.1,0,0.3,0,0.4c-0.4,0.4-0.5,0.8-0.1,1.4c0.1-0.5,0.2-0.8,0.3-1.2c3-7.3,6.6-14.3,11.6-20.5
	c13.5-16.6,30.7-26.4,52.1-28.3c38.6-3.6,73.2,22.3,80.4,60.5c3.9,20.5-0.1,39.7-12.2,56.8c-12.1,17.1-28.6,27.5-49.4,31
	c-4.2,0.7-8.5,1-12.7,1c-90.7,0-181.4,0.4-272.1-0.1c-32.1-0.2-55.2-16.2-68.8-45.3c-4.8-10.3-6.7-21.5-6-32.9
	c0.9-15.3,5.7-29.3,15-41.6c10.9-14.4,25.3-23.6,42.8-27.9c7.4-1.8,14.9-2,22.5-1.7c2.5,0.1,4.9,0.7,7.5,0.8c0.2-3.1,0.3-6.1,0.5-9
	c1-17.2,5.6-33.5,13.8-48.7c18.1-33.5,45.8-54.6,82.9-63.2C241.5,80.2,249.1,79.4,256.8,79.2z M325.5,252.8c-0.6,1.1-1,2.4-0.9,3.7
	C325,255.3,325.7,254.2,325.5,252.8z"/>
<path class="st0" d="M363.7,252.8c0.2,1.4-0.5,2.5-0.9,3.7C362.8,255.2,363.2,254,363.7,252.8z"/>
<path class="st2" d="M364.5,251.1c-0.1,0.4-0.2,0.7-0.3,1.2c-0.4-0.6-0.3-1,0.1-1.4C364.3,251,364.4,251.1,364.5,251.1z"/>
</svg>
