<svg xmlns="http://www.w3.org/2000/svg" viewBox="0 0 96 96"><defs><style>.a{fill:#787878;}.b{fill:#2196f3;}</style></defs><path class="a" d="M56.105,76.832v-2.9A2.6,2.6,0,0,0,53.266,71.7H41.912a2.6,2.6,0,0,0-2.839,2.231v2.894L33.4,81.3a1.906,1.906,0,0,0-.615,2.439A2.929,2.929,0,0,0,35.4,85.122H59.776A2.929,2.929,0,0,0,62.4,83.74a1.907,1.907,0,0,0-.616-2.439Z"/><path class="b" d="M82.065,19.71H13.935a1.421,1.421,0,0,0-1.419,1.419V60.871a1.421,1.421,0,0,0,1.419,1.419h68.13a1.421,1.421,0,0,0,1.419-1.419V21.129A1.421,1.421,0,0,0,82.065,19.71ZM16.774,59.458A1.426,1.426,0,1,1,18.2,58.032h0A1.426,1.426,0,0,1,16.774,59.458Zm5.678,0a1.426,1.426,0,1,1,1.426-1.426h0A1.426,1.426,0,0,1,22.452,59.458Zm5.678,0a1.426,1.426,0,1,1,1.426-1.426h0A1.426,1.426,0,0,1,28.13,59.458Zm21.584-3.97a1.418,1.418,0,0,1-2.006,0h0L34.932,42.713a1.419,1.419,0,0,1,2.007-2.007h0L49.714,53.48a1.418,1.418,0,0,1,0,2.006Zm10.645-.71a1.42,1.42,0,0,1-2.007,0v0l-22.71-22.71a1.42,1.42,0,1,1,2.008-2.007h0l22.71,22.71a1.418,1.418,0,0,1,0,2.006Zm.709-10.645a1.418,1.418,0,0,1-2.006,0v0L46.286,31.359a1.42,1.42,0,0,1,2.008-2.008h0L61.068,42.126A1.432,1.432,0,0,1,61.068,44.133Z"/><path class="a" d="M82.662,70.5H13.338a9.01,9.01,0,0,1-9-9V20.5a9.01,9.01,0,0,1,9-9H82.662a9.01,9.01,0,0,1,9,9V61.5A9.01,9.01,0,0,1,82.662,70.5ZM13.338,17.5a3,3,0,0,0-3,3V61.5a3,3,0,0,0,3,3H82.662a3,3,0,0,0,3-3V20.5a3,3,0,0,0-3-3Z"/></svg>