<svg xmlns="http://www.w3.org/2000/svg" viewBox="0 0 96 96"><defs><style>.a{fill:#d24726;}</style></defs><path class="a" d="M48,4A44,44,0,1,0,92,48,44,44,0,0,0,48,4Zm2.583,55.258L34.364,75.477a2,2,0,0,1-2.835,0L28,71.948a2.006,2.006,0,0,1,0-2.836l9.855-9.854a2.006,2.006,0,0,0,0-2.836l-10.5-10.5a2.006,2.006,0,0,1,0-2.836l3.529-3.528a2,2,0,0,1,2.835,0L50.583,56.422A2.006,2.006,0,0,1,50.583,59.258ZM68.648,26.887l-10.5,10.5a2,2,0,0,0,0,2.835L68,50.08a2.006,2.006,0,0,1,0,2.836l-3.529,3.529a2,2,0,0,1-2.835,0L45.417,40.225a2,2,0,0,1,0-2.835L62.284,20.523a2,2,0,0,1,2.835,0l3.529,3.529A2,2,0,0,1,68.648,26.887Z"/></svg>